<?xml version="1.0" standalone="no"?>
<!DOCTYPE svg PUBLIC "-//W3C//DTD SVG 20010904//EN"
 "http://www.w3.org/TR/2001/REC-SVG-20010904/DTD/svg10.dtd">
<svg version="1.0" xmlns="http://www.w3.org/2000/svg"
 width="700.000000pt" height="700.000000pt" viewBox="0 0 700.000000 700.000000"
 preserveAspectRatio="xMidYMid meet">
<metadata>
Created by potrace 1.11, written by Peter Selinger 2001-2013
</metadata>
<g transform="translate(0.000000,700.000000) scale(0.100000,-0.100000)"
fill="#000000" stroke="none">
<path d="M2970 6997 c-3 -3 -46 -7 -97 -10 -280 -19 -591 -75 -899 -162 -67
-19 -254 -83 -454 -155 -74 -26 -238 -85 -365 -130 -281 -100 -329 -127 -392
-215 -51 -72 -87 -188 -78 -250 2 -11 9 -53 15 -94 7 -41 10 -98 6 -128 -6
-52 -16 -77 -90 -237 -161 -343 -249 -670 -286 -1061 -7 -77 -5 -478 4 -540 2
-16 6 -57 10 -90 10 -95 44 -270 77 -395 17 -63 33 -146 35 -185 9 -110 -4
-139 -239 -521 -73 -120 -87 -156 -94 -239 -13 -164 68 -310 212 -383 22 -11
384 -165 805 -342 421 -177 783 -330 805 -340 22 -10 198 -84 390 -164 193
-81 364 -153 380 -161 59 -26 1253 -529 1370 -577 66 -26 129 -53 140 -58 11
-5 211 -90 445 -189 234 -98 509 -215 612 -259 227 -97 287 -113 428 -108 122
4 202 26 324 90 285 148 546 464 661 800 53 156 62 228 63 523 l1 263 35 31
c19 16 47 55 61 84 l25 54 0 1224 c0 1363 4 1279 -69 1352 -40 40 -108 73
-151 74 -28 1 -20 -20 -101 281 -184 687 -211 764 -342 975 -35 56 -149 195
-210 256 -158 158 -468 362 -810 531 -78 39 -352 158 -363 158 -3 0 -20 6 -37
14 -18 8 -61 24 -97 36 -36 12 -74 25 -85 30 -73 30 -381 108 -548 140 -97 18
-127 23 -222 36 -22 3 -47 7 -55 9 -8 2 -51 7 -95 11 -44 3 -93 8 -110 11 -42
5 -610 15 -615 10z"/>
</g>
</svg>
